<svg width="284" height="56" viewBox="0 0 284 56" fill="none" xmlns="http://www.w3.org/2000/svg">
<path d="M115.916 37.577V41H98.843V10.907H102.896V37.577H115.916ZM132.256 28.043C132.256 27.175 132.13 26.384 131.878 25.67C131.64 24.942 131.283 24.319 130.807 23.801C130.345 23.269 129.778 22.863 129.106 22.583C128.434 22.289 127.671 22.142 126.817 22.142C125.025 22.142 123.604 22.667 122.554 23.717C121.518 24.753 120.874 26.195 120.622 28.043H132.256ZM135.28 38.018C134.818 38.578 134.265 39.068 133.621 39.488C132.977 39.894 132.284 40.23 131.542 40.496C130.814 40.762 130.058 40.958 129.274 41.084C128.49 41.224 127.713 41.294 126.943 41.294C125.473 41.294 124.115 41.049 122.869 40.559C121.637 40.055 120.566 39.327 119.656 38.375C118.76 37.409 118.06 36.219 117.556 34.805C117.052 33.391 116.8 31.767 116.8 29.933C116.8 28.449 117.024 27.063 117.472 25.775C117.934 24.487 118.592 23.374 119.446 22.436C120.3 21.484 121.343 20.742 122.575 20.21C123.807 19.664 125.193 19.391 126.733 19.391C128.007 19.391 129.183 19.608 130.261 20.042C131.353 20.462 132.291 21.078 133.075 21.89C133.873 22.688 134.496 23.682 134.944 24.872C135.392 26.048 135.616 27.392 135.616 28.904C135.616 29.492 135.553 29.884 135.427 30.08C135.301 30.276 135.063 30.374 134.713 30.374H120.496C120.538 31.718 120.72 32.887 121.042 33.881C121.378 34.875 121.84 35.708 122.428 36.38C123.016 37.038 123.716 37.535 124.528 37.871C125.34 38.193 126.25 38.354 127.258 38.354C128.196 38.354 129.001 38.249 129.673 38.039C130.359 37.815 130.947 37.577 131.437 37.325C131.927 37.073 132.333 36.842 132.655 36.632C132.991 36.408 133.278 36.296 133.516 36.296C133.824 36.296 134.062 36.415 134.23 36.653L135.28 38.018ZM146.574 41.336C144.894 41.336 143.599 40.867 142.689 39.929C141.793 38.991 141.345 37.64 141.345 35.876V22.856H138.783C138.559 22.856 138.37 22.793 138.216 22.667C138.062 22.527 137.985 22.317 137.985 22.037V20.546L141.471 20.105L142.332 13.532C142.374 13.322 142.465 13.154 142.605 13.028C142.759 12.888 142.955 12.818 143.193 12.818H145.083V20.147H151.236V22.856H145.083V35.624C145.083 36.52 145.3 37.185 145.734 37.619C146.168 38.053 146.728 38.27 147.414 38.27C147.806 38.27 148.142 38.221 148.422 38.123C148.716 38.011 148.968 37.892 149.178 37.766C149.388 37.64 149.563 37.528 149.703 37.43C149.857 37.318 149.99 37.262 150.102 37.262C150.298 37.262 150.473 37.381 150.627 37.619L151.719 39.404C151.075 40.006 150.298 40.482 149.388 40.832C148.478 41.168 147.54 41.336 146.574 41.336ZM157.679 8.891C158.267 9.885 158.666 10.935 158.876 12.041C159.086 13.147 159.107 14.239 158.939 15.317C158.771 16.395 158.421 17.431 157.889 18.425C157.357 19.419 156.65 20.301 155.768 21.071L154.634 20.336C154.424 20.21 154.326 20.049 154.34 19.853C154.368 19.643 154.438 19.475 154.55 19.349C154.914 18.901 155.222 18.362 155.474 17.732C155.74 17.088 155.908 16.402 155.978 15.674C156.062 14.932 156.027 14.169 155.873 13.385C155.733 12.601 155.446 11.845 155.012 11.117C154.83 10.823 154.774 10.564 154.844 10.34C154.928 10.102 155.103 9.927 155.369 9.815L157.679 8.891ZM175.525 23.234C175.357 23.542 175.098 23.696 174.748 23.696C174.538 23.696 174.3 23.619 174.034 23.465C173.768 23.311 173.439 23.143 173.047 22.961C172.669 22.765 172.214 22.59 171.682 22.436C171.15 22.268 170.52 22.184 169.792 22.184C169.162 22.184 168.595 22.268 168.091 22.436C167.587 22.59 167.153 22.807 166.789 23.087C166.439 23.367 166.166 23.696 165.97 24.074C165.788 24.438 165.697 24.837 165.697 25.271C165.697 25.817 165.851 26.272 166.159 26.636C166.481 27 166.901 27.315 167.419 27.581C167.937 27.847 168.525 28.085 169.183 28.295C169.841 28.491 170.513 28.708 171.199 28.946C171.899 29.17 172.578 29.422 173.236 29.702C173.894 29.982 174.482 30.332 175 30.752C175.518 31.172 175.931 31.69 176.239 32.306C176.561 32.908 176.722 33.636 176.722 34.49C176.722 35.47 176.547 36.38 176.197 37.22C175.847 38.046 175.329 38.767 174.643 39.383C173.957 39.985 173.117 40.461 172.123 40.811C171.129 41.161 169.981 41.336 168.679 41.336C167.195 41.336 165.851 41.098 164.647 40.622C163.443 40.132 162.421 39.509 161.581 38.753L162.463 37.325C162.575 37.143 162.708 37.003 162.862 36.905C163.016 36.807 163.212 36.758 163.45 36.758C163.702 36.758 163.968 36.856 164.248 37.052C164.528 37.248 164.864 37.465 165.256 37.703C165.662 37.941 166.152 38.158 166.726 38.354C167.3 38.55 168.014 38.648 168.868 38.648C169.596 38.648 170.233 38.557 170.779 38.375C171.325 38.179 171.78 37.92 172.144 37.598C172.508 37.276 172.774 36.905 172.942 36.485C173.124 36.065 173.215 35.617 173.215 35.141C173.215 34.553 173.054 34.07 172.732 33.692C172.424 33.3 172.011 32.971 171.493 32.705C170.975 32.425 170.38 32.187 169.708 31.991C169.05 31.781 168.371 31.564 167.671 31.34C166.985 31.116 166.306 30.864 165.634 30.584C164.976 30.29 164.388 29.926 163.87 29.492C163.352 29.058 162.932 28.526 162.61 27.896C162.302 27.252 162.148 26.475 162.148 25.565C162.148 24.753 162.316 23.976 162.652 23.234C162.988 22.478 163.478 21.82 164.122 21.26C164.766 20.686 165.557 20.231 166.495 19.895C167.433 19.559 168.504 19.391 169.708 19.391C171.108 19.391 172.361 19.615 173.467 20.063C174.587 20.497 175.553 21.099 176.365 21.869L175.525 23.234Z" fill="#F02385"/>
<path d="M193.086 36.59C194.136 36.59 195.018 36.464 195.732 36.212C196.446 35.96 197.013 35.624 197.433 35.204C197.867 34.784 198.175 34.294 198.357 33.734C198.553 33.174 198.651 32.579 198.651 31.949C198.651 31.291 198.546 30.703 198.336 30.185C198.126 29.653 197.797 29.205 197.349 28.841C196.901 28.463 196.32 28.176 195.606 27.98C194.906 27.784 194.059 27.686 193.065 27.686H187.374V36.59H193.086ZM187.374 15.002V23.78H191.868C193.8 23.78 195.256 23.43 196.236 22.73C197.23 22.03 197.727 20.917 197.727 19.391C197.727 17.809 197.279 16.682 196.383 16.01C195.487 15.338 194.087 15.002 192.183 15.002H187.374ZM192.183 10.634C194.171 10.634 195.872 10.823 197.286 11.201C198.7 11.579 199.855 12.118 200.751 12.818C201.661 13.518 202.326 14.365 202.746 15.359C203.166 16.353 203.376 17.473 203.376 18.719C203.376 19.433 203.271 20.119 203.061 20.777C202.851 21.421 202.522 22.03 202.074 22.604C201.64 23.164 201.08 23.675 200.394 24.137C199.722 24.599 198.917 24.991 197.979 25.313C202.151 26.251 204.237 28.505 204.237 32.075C204.237 33.363 203.992 34.553 203.502 35.645C203.012 36.737 202.298 37.682 201.36 38.48C200.422 39.264 199.267 39.88 197.895 40.328C196.523 40.776 194.955 41 193.191 41H181.725V10.634H192.183ZM226.745 19.454V41H223.574C222.888 41 222.454 40.685 222.272 40.055L221.915 38.333C221.033 39.229 220.06 39.957 218.996 40.517C217.932 41.063 216.679 41.336 215.237 41.336C214.061 41.336 213.018 41.14 212.108 40.748C211.212 40.342 210.456 39.775 209.84 39.047C209.224 38.319 208.755 37.458 208.433 36.464C208.125 35.456 207.971 34.35 207.971 33.146V19.454H213.158V33.146C213.158 34.462 213.459 35.484 214.061 36.212C214.677 36.926 215.594 37.283 216.812 37.283C217.708 37.283 218.548 37.087 219.332 36.695C220.116 36.289 220.858 35.736 221.558 35.036V19.454H226.745ZM237.264 19.454V41H232.056V19.454H237.264ZM237.978 13.175C237.978 13.623 237.887 14.043 237.705 14.435C237.523 14.827 237.278 15.17 236.97 15.464C236.676 15.758 236.326 15.996 235.92 16.178C235.514 16.346 235.08 16.43 234.618 16.43C234.17 16.43 233.743 16.346 233.337 16.178C232.945 15.996 232.602 15.758 232.308 15.464C232.014 15.17 231.776 14.827 231.594 14.435C231.426 14.043 231.342 13.623 231.342 13.175C231.342 12.713 231.426 12.279 231.594 11.873C231.776 11.467 232.014 11.117 232.308 10.823C232.602 10.529 232.945 10.298 233.337 10.13C233.743 9.948 234.17 9.857 234.618 9.857C235.08 9.857 235.514 9.948 235.92 10.13C236.326 10.298 236.676 10.529 236.97 10.823C237.278 11.117 237.523 11.467 237.705 11.873C237.887 12.279 237.978 12.713 237.978 13.175ZM247.802 9.794V41H242.615V9.794H247.802ZM266.494 24.956C265.906 24.242 265.262 23.738 264.562 23.444C263.876 23.15 263.134 23.003 262.336 23.003C261.552 23.003 260.845 23.15 260.215 23.444C259.585 23.738 259.046 24.186 258.598 24.788C258.15 25.376 257.807 26.132 257.569 27.056C257.331 27.966 257.212 29.044 257.212 30.29C257.212 31.55 257.31 32.621 257.506 33.503C257.716 34.371 258.01 35.085 258.388 35.645C258.766 36.191 259.228 36.59 259.774 36.842C260.32 37.08 260.929 37.199 261.601 37.199C262.679 37.199 263.596 36.975 264.352 36.527C265.108 36.079 265.822 35.442 266.494 34.616V24.956ZM271.681 9.794V41H268.51C267.824 41 267.39 40.685 267.208 40.055L266.767 37.976C265.899 38.97 264.898 39.775 263.764 40.391C262.644 41.007 261.335 41.315 259.837 41.315C258.661 41.315 257.583 41.07 256.603 40.58C255.623 40.09 254.776 39.383 254.062 38.459C253.362 37.521 252.816 36.366 252.424 34.994C252.046 33.622 251.857 32.054 251.857 30.29C251.857 28.694 252.074 27.21 252.508 25.838C252.942 24.466 253.565 23.276 254.377 22.268C255.189 21.26 256.162 20.476 257.296 19.916C258.43 19.342 259.704 19.055 261.118 19.055C262.322 19.055 263.351 19.244 264.205 19.622C265.059 20 265.822 20.511 266.494 21.155V9.794H271.681Z" fill="black"/>
<g filter="url(#filter0_d)">
<circle cx="59.5536" cy="26.126" r="20.1625" fill="#F02385"/>
<path d="M49.4724 5.72821C59.7937 15.8047 72.0352 42.2127 72.0352 42.2127C63.4134 47.5552 56.5423 48.1522 43.2317 47.9734C44.2028 45.2211 19.7087 37.8922 19.7087 17.2496C19.7087 -3.39291 42.5116 -3.15766 49.4724 5.72821Z" fill="#F855A0"/>
<path d="M17.5483 47.9687H50.6724C50.6724 47.9687 42.7514 21.9138 30.2699 17.4849C0.50623 6.92358 -4.29436 42.688 17.5483 47.9687Z" fill="#FE74B3"/>
</g>
<defs>
<filter id="filter0_d" x="0" y="0" width="83.7161" height="56" filterUnits="userSpaceOnUse" color-interpolation-filters="sRGB">
<feFlood flood-opacity="0" result="BackgroundImageFix"/>
<feColorMatrix in="SourceAlpha" type="matrix" values="0 0 0 0 0 0 0 0 0 0 0 0 0 0 0 0 0 0 127 0"/>
<feOffset dy="4"/>
<feGaussianBlur stdDeviation="2"/>
<feColorMatrix type="matrix" values="0 0 0 0 0 0 0 0 0 0 0 0 0 0 0 0 0 0 0.25 0"/>
<feBlend mode="normal" in2="BackgroundImageFix" result="effect1_dropShadow"/>
<feBlend mode="normal" in="SourceGraphic" in2="effect1_dropShadow" result="shape"/>
</filter>
</defs>
</svg>
